<?xml version="1.0" encoding="utf-8"?>
<?xml-stylesheet type="text/css" href="ellip-arc-1.css" charset="utf-8"?>

<!DOCTYPE svg PUBLIC "-//W3C//DTD SVG 20010904//EN" "http://www.w3.org/TR/2001/REC-SVG-20010904/DTD/svg10.dtd">

<svg width="100%" height="100%" xml:lang="fr" viewBox="0 0 400 300" preserveAspectRatio="xMidYMid meet"
xmlns="http://www.w3.org/2000/svg"
xmlns:xlink="http://www.w3.org/1999/xlink">

<title>Des arcs elliptiques simples</title>

<!-- arc №1 -->
<ellipse cx="60" cy="50" rx="50" ry="20"/>
<path d="M 10,50 A 50 20 0 0 0 110,50"/>

<!-- arc №2 -->
<ellipse cx="230" cy="50" rx="50" ry="20"/>
<path d="M 180,50 a 50 20 0 0 1 100,0"/>

<!-- arc №3 -->
<path d="M 10,150 a 60 25 0 0 0 100,50"/>

<!-- arc №4 -->
<path d="M 110,150 a 60 25 0 1 1 100,50"/>

<!-- arc №5 -->
<path d="M 10,215 a 60 25 45 1 0 100,50"/>

<!-- arc №6 -->
<path d="M 350,290 a 45 280 0 0 1 -40,-280"/>

<!-- arc №7 -->
<path d="M 350,290 a 45 280 0 0 0 -40,-280" style="stroke-dasharray:10,10"/>

</svg>
