<?xml version="1.0" encoding="utf-8"?>
<?xml-stylesheet type="text/css" href="ellip-arc-cercle-schema.css" charset="utf-8"?>

<!DOCTYPE svg PUBLIC "-//W3C//DTD SVG 20010904//EN" "http://www.w3.org/TR/2001/REC-SVG-20010904/DTD/svg10.dtd">

<svg width="100%" height="100%" xml:lang="fr" viewBox="0 0 400 300" preserveAspectRatio="xMidYMid meet" 
xmlns="http://www.w3.org/2000/svg" 
xmlns:xlink="http://www.w3.org/1999/xlink">

<title>Un cercle grâce à la commande d’arc elliptique : schéma</title>

<defs>

<marker id="first-a-marker" markerWidth="6" markerHeight="6" refX="6" refY="3" orient="auto">
	<polyline points="0,0 6,3 0,6"/>
</marker>

<marker id="second-a-marker" markerWidth="6" markerHeight="6" refX="6" refY="3" orient="auto">
	<polyline points="0,0 6,3 0,6"/>
</marker>

</defs>



<text x="4" y="14"><tspan class="moveto">M 100,150</tspan> <tspan class="first-a">a 100 100 0 0 0 200,0</tspan> 
<tspan class="second-a">a 100 100 0 0 0 -200,0</tspan></text>

<path d="M 100,150 a 100 100 0 0 0 200,0 a 100 100 0 0 0 -200,0"/>

<!-- moveto -->
<circle cx="100" cy="150" r="2"/>
<text class="moveto anchor-end" x="96" y="156">M 100,150</text>

<!-- first-a -->
<circle cx="300" cy="150" r="2"/>
<text class="first-a" x="304" y="156">+ 200,0 par rapport à</text>
<text class="first-a" x="304" y="170">M 100,150</text>
<path class="first-a-path" d="M 90,180 a 100 85 0 0 0 220 0"/>

<!-- second-a -->
<text class="second-a anchor-end" x="100" y="116">- 200,0 par rapport à</text>
<text class="second-a anchor-end" x="100" y="130">300,150</text>
<path class="second-a-path" d="M 310,140 A 160 320 10 0 0 96,100"/>












</svg>
