<?xml version="1.0" encoding="utf-8"?>
<?xml-stylesheet type="text/css" href="scale-svg.css" charset="utf-8"?>

<!DOCTYPE svg PUBLIC "-//W3C//DTD SVG 20010904//EN" "http://www.w3.org/TR/2001/REC-SVG-20010904/DTD/svg10.dtd">

<svg width="100%" height="100%" xml:lang="fr" viewBox="-80 -10 400 300" preserveAspectRatio="xMidYMid meet"
xmlns="http://www.w3.org/2000/svg"
xmlns:xlink="http://www.w3.org/1999/xlink">

<script type="text/ecmascript" xlink:href="../../../inc/smil.user.js"/>

<title>Schéma d’un changement d’échelle avec SVG</title>

<defs>
<g id="grille">

<!-- horizontal lines -->
<line x1="0" x2="300" y1="25" y2="25"/>
<text class="hlines" x="2" y="23">25</text>
<line x1="0" x2="300" y1="50" y2="50"/>
<text class="hlines" x="2" y="48">50</text>
<line x1="0" x2="300" y1="75" y2="75"/>
<text class="hlines" x="2" y="73">75</text>
<line x1="0" x2="300" y1="100" y2="100"/>
<text class="hlines" x="2" y="98">100</text>
<line x1="0" x2="300" y1="125" y2="125"/>
<text class="hlines" x="2" y="123">125</text>
<line x1="0" x2="300" y1="150" y2="150"/>
<text class="hlines" x="2" y="148">150</text>
<line x1="0" x2="300" y1="175" y2="175"/>
<text class="hlines" x="2" y="173">175</text>

<!--v vertical lines -->
<line x1="25" x2="25" y1="0" y2="200"/>
<text class="vlines" x="25" y="11">25</text>
<line x1="50" x2="50" y1="0" y2="200"/>
<text class="vlines" x="50" y="11">50</text>
<line x1="75" x2="75" y1="0" y2="200"/>
<text class="vlines" x="75" y="11">75</text>
<line x1="100" x2="100" y1="0" y2="200"/>
<text class="vlines" x="100" y="11">100</text>
<line x1="125" x2="125" y1="0" y2="200"/>
<text class="vlines" x="125" y="11">125</text>
<line x1="150" x2="150" y1="0" y2="200"/>
<text class="vlines" x="150" y="11">150</text>
<line x1="175" x2="175" y1="0" y2="200"/>
<text class="vlines" x="175" y="11">175</text>
<line x1="200" x2="200" y1="0" y2="200"/>
<text class="vlines" x="200" y="11">200</text>
<line x1="225" x2="225" y1="0" y2="200"/>
<text class="vlines" x="225" y="11">225</text>
<line x1="250" x2="250" y1="0" y2="200"/>
<text class="vlines" x="250" y="11">250</text>
<line x1="275" x2="275" y1="0" y2="200"/>
<text class="vlines" x="275" y="11">275</text>

<polygon points="25,25 25,75 125,25"/>

<rect id="background" width="300" height="200"/>

</g>
</defs>

<use id="palecolors" xlink:href="#grille"/>

<use xlink:href="#grille">
	<animateTransform attributeName="transform" attributeType="XML" type="scale" from="1" to="2" begin="button.click+0.2s" dur="2s" fill="freeze" additive="sum" restart="whenNotActive"/>
</use>

<g id="button" transform="translate(-80,-10)">
	<rect x="330" y="276" width="68" height="22" rx="4" ry="4"/>
	<text x="364" y="292">Scale</text>
</g>

</svg>
