<?xml version="1.0" encoding="UTF-8"?>
<?xml-stylesheet type="text/css" href="path.css" charset="utf-8"?>

<svg xmlns="http://www.w3.org/2000/svg" version="1.1" baseProfile="full" width="100%" height="100%" xml:lang="fr" viewBox="0 0 400 300" preserveAspectRatio="xMidYMid meet" onload="" xmlns:xlink="http://www.w3.org/1999/xlink">

<title>Gestion des tracés avec le DOM SVG</title>

<script xlink:href="path.js"/>

<path id="tracé" d="M 54.285714,122.14286 C 197.85714,81.428571 173.50708,31.752528 94.204433,53.001607 C 14.901789,74.250687 31.428571,7.1428568 112.85714,23.571428 C 194.28571,40 343.57143,100.71429 343.57143,100.71429 C 343.57143,100.71429 418.57143,154.28571 340.71429,191.42857 C 262.85714,228.57143 364.28571,256.42857 280.71429,270.71429 C 197.14286,285 99.285714,301.42857 79.285714,275.71429 C 59.285714,250 -52.142857,285.71429 84.285714,200.71429 C 220.71429,115.71429 250,162.14286 250,162.14286 C 250,162.14286 127.85714,225 195.71429,214.28571 C 263.57143,203.57143 343.57143,175.71429 312.14286,150 C 280.71429,124.28571 193.57143,38.571428 167.85714,89.285714 C 142.14286,140 55,122.14286 54.285714,122.14286 z"/>

<circle id="cercle" cx="54.285714" cy="122.14286" r="10"/>

</svg>
