<?xml version="1.0" encoding="UTF-8" standalone="no"?>
<!DOCTYPE svg PUBLIC "-//W3C//DTD SVG 1.0//EN"
 "http://www.w3.org/TR/2001/REC-SVG-20010904/DTD/svg10.dtd" [
 <!ATTLIST svg xmlns:xlink CDATA #FIXED "http://www.w3.org/1999/xlink">
]>
<!-- Generated by Graphviz version 2.20.2 (Mon Mar 30 10:09:11 UTC 2009)
     For user: (linkmauve) Link Mauve,,, -->
<!-- Title: svg Pages: 1 -->
<svg width="406pt" height="260pt"
 viewBox="0.00 0.00 406.00 260.00" xmlns="http://www.w3.org/2000/svg" xmlns:xlink="http://www.w3.org/1999/xlink">
<g id="graph0" class="graph" transform="scale(1 1) rotate(0) translate(4 256)">
<title>svg</title>
<polygon style="fill:white;stroke:white;" points="-4,4 -4,-256 402,-256 402,4 -4,4"/>
<!-- &lt;svg/&gt; -->
<g id="node1" class="node"><title>&lt;svg/&gt;</title>
<text text-anchor="middle" x="189" y="-229.9" style="font-family:Times New Roman;font-size:14.00;">&lt;svg/&gt;</text>
</g>
<!-- &lt;title/&gt; -->
<g id="node3" class="node"><title>&lt;title/&gt;</title>
<text text-anchor="middle" x="127" y="-157.9" style="font-family:Times New Roman;font-size:14.00;">&lt;title/&gt;</text>
</g>
<!-- &lt;svg/&gt;&#45;&gt;&lt;title/&gt; -->
<g id="edge2" class="edge"><title>&lt;svg/&gt;&#45;&gt;&lt;title/&gt;</title>
<path style="fill:none;stroke:black;" d="M173,-216C166,-207 157,-197 149,-188"/>
<polygon style="fill:black;stroke:black;" points="151.219,-185.221 142,-180 145.951,-189.831 151.219,-185.221"/>
</g>
<!-- &lt;text/&gt; -->
<g id="node5" class="node"><title>&lt;text/&gt;</title>
<text text-anchor="middle" x="251" y="-157.9" style="font-family:Times New Roman;font-size:14.00;">&lt;text/&gt;</text>
</g>
<!-- &lt;svg/&gt;&#45;&gt;&lt;text/&gt; -->
<g id="edge4" class="edge"><title>&lt;svg/&gt;&#45;&gt;&lt;text/&gt;</title>
<path style="fill:none;stroke:black;" d="M205,-216C212,-207 221,-197 229,-188"/>
<polygon style="fill:black;stroke:black;" points="232.049,-189.831 236,-180 226.781,-185.221 232.049,-189.831"/>
</g>
<!-- &quot;Document SVG de test&quot; -->
<g id="node7" class="node"><title>&quot;Document SVG de test&quot;</title>
<text text-anchor="middle" x="93" y="-85.9" style="font-family:Times New Roman;font-size:14.00;">&quot;Document SVG de test&quot;</text>
</g>
<!-- &lt;title/&gt;&#45;&gt;&quot;Document SVG de test&quot; -->
<g id="edge6" class="edge"><title>&lt;title/&gt;&#45;&gt;&quot;Document SVG de test&quot;</title>
<path style="fill:none;stroke:black;" d="M118,-144C114,-136 110,-126 105,-117"/>
<polygon style="fill:black;stroke:black;" points="108.26,-115.717 101,-108 101.863,-118.56 108.26,-115.717"/>
</g>
<!-- &quot;Du texte &quot; -->
<g id="node9" class="node"><title>&quot;Du texte &quot;</title>
<text text-anchor="middle" x="251" y="-85.9" style="font-family:Times New Roman;font-size:14.00;">&quot;Du texte &quot;</text>
</g>
<!-- &lt;text/&gt;&#45;&gt;&quot;Du texte &quot; -->
<g id="edge8" class="edge"><title>&lt;text/&gt;&#45;&gt;&quot;Du texte &quot;</title>
<path style="fill:none;stroke:black;" d="M251,-144C251,-136 251,-127 251,-118"/>
<polygon style="fill:black;stroke:black;" points="254.5,-118 251,-108 247.5,-118 254.5,-118"/>
</g>
<!-- &lt;tspan/&gt; -->
<g id="node11" class="node"><title>&lt;tspan/&gt;</title>
<text text-anchor="middle" x="357" y="-85.9" style="font-family:Times New Roman;font-size:14.00;">&lt;tspan/&gt;</text>
</g>
<!-- &lt;text/&gt;&#45;&gt;&lt;tspan/&gt; -->
<g id="edge10" class="edge"><title>&lt;text/&gt;&#45;&gt;&lt;tspan/&gt;</title>
<path style="fill:none;stroke:black;" d="M278,-144C291,-135 308,-124 322,-114"/>
<polygon style="fill:black;stroke:black;" points="324.621,-116.459 331,-108 320.738,-110.635 324.621,-116.459"/>
</g>
<!-- &quot;en SVG&quot; -->
<g id="node13" class="node"><title>&quot;en SVG&quot;</title>
<text text-anchor="middle" x="357" y="-13.9" style="font-family:Times New Roman;font-size:14.00;">&quot;en SVG&quot;</text>
</g>
<!-- &lt;tspan/&gt;&#45;&gt;&quot;en SVG&quot; -->
<g id="edge12" class="edge"><title>&lt;tspan/&gt;&#45;&gt;&quot;en SVG&quot;</title>
<path style="fill:none;stroke:black;" d="M357,-72C357,-64 357,-55 357,-46"/>
<polygon style="fill:black;stroke:black;" points="360.5,-46 357,-36 353.5,-46 360.5,-46"/>
</g>
</g>
</svg>
