<?xml version="1.0" encoding="utf-8"?>
<?xml-stylesheet type="text/css" href="polylines.css" charset="utf-8"?>

<!DOCTYPE svg PUBLIC "-//W3C//DTD SVG 20010904//EN" "http://www.w3.org/TR/2001/REC-SVG-20010904/DTD/svg10.dtd">

<svg width="100%" height="100%" xml:lang="fr" viewBox="0 0 400 300" preserveAspectRatio="xMidYMid meet" 
xmlns="http://www.w3.org/2000/svg" 
xmlns:xlink="http://www.w3.org/1999/xlink">

<title>Exemple d’utilisation de la balise polyline</title>

<polyline points="20,10 40,30 60,10 80,30 100,10 120,30 140,10 160,30 180,10 200,30 220,10 240,30 260,10 280,30 300,10 320,30 
340,10 360,30 380,10"/>

<polyline id="poly2" points="20,60 40,80 60,60 80,80 100,60 120,80 140,60 160,80 180,60 200,80 220,60 240,80 260,60 280,80 300,60 320,80 
340,60 360,80 380,60"/>

<polyline id="poly3" points="50,150 250,150 300,200 250,250 50,250"/>

</svg>
